<?xml version="1.0" encoding="utf-8"?>
<!-- Generator: Adobe Illustrator 23.0.2, SVG Export Plug-In . SVG Version: 6.00 Build 0)  -->
<!DOCTYPE svg PUBLIC "-//W3C//DTD SVG 1.1//EN" "http://www.w3.org/Graphics/SVG/1.1/DTD/svg11.dtd" [
	<!ENTITY ns_extend "http://ns.adobe.com/Extensibility/1.0/">
	<!ENTITY ns_ai "http://ns.adobe.com/AdobeIllustrator/10.0/">
	<!ENTITY ns_graphs "http://ns.adobe.com/Graphs/1.0/">
	<!ENTITY ns_vars "http://ns.adobe.com/Variables/1.0/">
	<!ENTITY ns_imrep "http://ns.adobe.com/ImageReplacement/1.0/">
	<!ENTITY ns_sfw "http://ns.adobe.com/SaveForWeb/1.0/">
	<!ENTITY ns_custom "http://ns.adobe.com/GenericCustomNamespace/1.0/">
	<!ENTITY ns_adobe_xpath "http://ns.adobe.com/XPath/1.0/">
]>
<svg version="1.1" xmlns:x="&ns_extend;" xmlns:i="&ns_ai;" xmlns:graph="&ns_graphs;"
	 xmlns="http://www.w3.org/2000/svg" xmlns:xlink="http://www.w3.org/1999/xlink" x="0px" y="0px" viewBox="0 0 386 284"
	 style="enable-background:new 0 0 386 284;" xml:space="preserve">
<style type="text/css">
	.st0{display:none;}
	.st1{fill:url(#SVGID_1_);}
	.st2{fill:url(#SVGID_2_);}
	.st3{fill:url(#SVGID_3_);}
	.st4{fill:none;}
	.st5{fill:#B4C6E6;}
	.st6{fill:#F0F0F7;}
	.st7{opacity:0.25;enable-background:new    ;}
	.st8{fill:#FFFFFF;}
	.st9{fill:#FDFFFF;}
	.st10{fill:none;stroke:#50678D;stroke-width:0.75;stroke-miterlimit:10;}
	.st11{fill:none;stroke:#50678D;stroke-miterlimit:10;enable-background:new    ;}
	.st12{fill:none;stroke:#50678D;stroke-miterlimit:10;}
</style>
<metadata>
	<sfw  xmlns="&ns_sfw;">
		<slices></slices>
		<sliceSourceBounds  bottomLeftOrigin="true" height="576.5" width="1064.6" x="-274.1" y="-303"></sliceSourceBounds>
	</sfw>
</metadata>
<g id="Layer_1">
	
		<linearGradient id="SVGID_1_" gradientUnits="userSpaceOnUse" x1="108.4181" y1="108.293" x2="69.3465" y2="35.9749" gradientTransform="matrix(1 0 0 -1 0 286)">
		<stop  offset="0" style="stop-color:#164484"/>
		<stop  offset="8.705189e-02" style="stop-color:#1C4E8F"/>
		<stop  offset="0.2397" style="stop-color:#2B69AC"/>
		<stop  offset="0.4387" style="stop-color:#4595DB"/>
		<stop  offset="0.5335" style="stop-color:#52ACF4"/>
	</linearGradient>
	<polyline class="st1" points="9.2,167.3 192.3,277.2 192.3,216.4 9.2,106.6 	"/>
	
		<linearGradient id="SVGID_2_" gradientUnits="userSpaceOnUse" x1="187.6285" y1="267.2516" x2="198.3912" y2="81.808" gradientTransform="matrix(1 0 0 -1 0 286)">
		<stop  offset="0" style="stop-color:#0669EA"/>
		<stop  offset="2.208945e-02" style="stop-color:#086BEA"/>
		<stop  offset="0.4403" style="stop-color:#308EF0"/>
		<stop  offset="0.7722" style="stop-color:#49A4F3"/>
		<stop  offset="0.9745" style="stop-color:#52ACF4"/>
	</linearGradient>
	<polygon class="st2" points="9.2,106.6 194.4,11.3 376.8,116 192.3,216.4 	"/>
	
		<linearGradient id="SVGID_3_" gradientUnits="userSpaceOnUse" x1="275.2536" y1="106.2621" x2="298.5894" y2="63.9348" gradientTransform="matrix(1 0 0 -1 0 286)">
		<stop  offset="0" style="stop-color:#1E569A"/>
		<stop  offset="0.9745" style="stop-color:#52ACF4"/>
	</linearGradient>
	<polygon class="st3" points="192.3,277.2 376.8,175.7 376.8,116 192.3,216.4 	"/>
	<polygon class="st9" points="112.4,98.8 121,93.7 80.6,87.3 88.2,110.8 100,104.3 155.1,138.9 165.2,131.4 	"/>
	<polygon class="st9" points="168.2,73 176.7,67.8 136.4,61.4 144,84.9 155.7,78.4 210.8,113.1 220.9,105.5 	"/>
	<polygon class="st9" points="284.6,122.2 276.1,127.3 316.4,133.7 308.8,110.2 297.1,116.7 242,82.1 231.9,89.6 	"/>
	<polygon class="st9" points="228.9,153.4 220.4,158.6 260.7,165 253.1,141.5 241.3,148 186.2,113.3 176.1,120.9 	"/>
	<line class="st10" x1="88.2" y1="110.8" x2="100" y2="104.3"/>
</g>
<g id="belina">
	<g>
		<path class="st8" d="M59.9,137c8.2,4.7,16.3,9.4,24.3,14.2l24.2,14.4l24.1,14.6l12,7.4l11.9,7.5l-12.2-7l-12.1-7.1l-24.2-14.4
			l-24.1-14.6C75.8,146.9,67.8,142,59.9,137z"/>
	</g>
	<g>
		<path class="st8" d="M334.1,139.1c-8.2,4.7-16.4,9.2-24.6,13.7l-24.7,13.5L260,179.7l-12.4,6.6l-12.5,6.5l12.3-6.9l12.3-6.8
			l24.7-13.5l24.8-13.3C317.4,147.8,325.7,143.4,334.1,139.1z"/>
	</g>
	<g>
		<path class="st8" d="M192.3,220.3c0.2,4.3,0.3,8.5,0.4,12.8c0.1,4.3,0.1,8.5,0.1,12.8c0,4.3,0,8.5-0.1,12.8l-0.1,6.4
			c-0.1,2.1-0.1,4.3-0.2,6.4c-0.1-2.1-0.2-4.3-0.2-6.4l-0.1-6.4c-0.1-4.3-0.1-8.5-0.1-12.8c0-4.3,0-8.5,0.1-12.8
			C192,228.8,192.1,224.5,192.3,220.3z"/>
	</g>
</g>
<g id="Layer_3">
</g>
<g id="Layer_4">
	<polyline class="st11" points="136.4,61.4 176.7,67.8 168.2,73 220.9,105.5 	"/>
	<polyline class="st11" points="80.6,87.3 121,93.7 112.4,98.8 165.2,131.4 	"/>
	<polyline class="st12" points="231.9,89.6 242,82.1 297.1,116.7 308.8,110.2 316.4,133.7 	"/>
	<polyline class="st12" points="176.1,120.9 186.2,113.3 241.3,148 253.1,141.5 260.7,165 	"/>
	<line class="st10" x1="220.4" y1="158.6" x2="228.9" y2="153.4"/>
</g>
</svg>
