<?xml version="1.0" encoding="utf-8"?>
<!-- Generator: Adobe Illustrator 23.0.2, SVG Export Plug-In . SVG Version: 6.00 Build 0)  -->
<!DOCTYPE svg PUBLIC "-//W3C//DTD SVG 1.1//EN" "http://www.w3.org/Graphics/SVG/1.1/DTD/svg11.dtd" [
	<!ENTITY ns_extend "http://ns.adobe.com/Extensibility/1.0/">
	<!ENTITY ns_ai "http://ns.adobe.com/AdobeIllustrator/10.0/">
	<!ENTITY ns_graphs "http://ns.adobe.com/Graphs/1.0/">
	<!ENTITY ns_vars "http://ns.adobe.com/Variables/1.0/">
	<!ENTITY ns_imrep "http://ns.adobe.com/ImageReplacement/1.0/">
	<!ENTITY ns_sfw "http://ns.adobe.com/SaveForWeb/1.0/">
	<!ENTITY ns_custom "http://ns.adobe.com/GenericCustomNamespace/1.0/">
	<!ENTITY ns_adobe_xpath "http://ns.adobe.com/XPath/1.0/">
]>
<svg version="1.1" xmlns:x="&ns_extend;" xmlns:i="&ns_ai;" xmlns:graph="&ns_graphs;"
	 xmlns="http://www.w3.org/2000/svg" xmlns:xlink="http://www.w3.org/1999/xlink" x="0px" y="0px" viewBox="0 0 335 451"
	 style="enable-background:new 0 0 335 451;" xml:space="preserve">
<style type="text/css">
	.st0{fill:none;}
	.st1{opacity:0.25;enable-background:new    ;}
	.st2{fill:#FFFFFF;}
	.st3{fill:url(#SVGID_1_);}
	.st4{fill:url(#SVGID_2_);}
	.st5{fill:url(#SVGID_3_);}
	.st6{fill:#FDFFFF;}
	.st7{display:none;}
	.st8{fill:none;stroke:#50678D;stroke-miterlimit:10;}
	.st9{fill:#50678D;}
	.st10{enable-background:new    ;}
	.st11{fill:#DEDEDE;}
	.st12{fill:#808080;}
	.st13{fill:#898989;}
	.st14{fill:#C2C2C2;}
	.st15{fill:#FCFCFC;}
	.st16{fill:#FDFDFD;}
	.st17{fill:#8D8D8D;}
	.st18{fill:#828282;}
	.st19{fill:#D2D2D2;}
	.st20{fill:#ECECEC;}
	.st21{clip-path:url(#SVGID_5_);enable-background:new    ;}
	.st22{fill:#858585;}
	.st23{fill:#8A8A8A;}
	.st24{fill:#8F8F8F;}
	.st25{fill:#949494;}
	.st26{fill:#999999;}
	.st27{fill:#9E9E9E;}
	.st28{fill:#A3A3A3;}
	.st29{fill:#A8A8A8;}
	.st30{fill:#ADADAD;}
	.st31{fill:#B3B3B3;}
	.st32{fill:#B8B8B8;}
	.st33{fill:#BDBDBD;}
	.st34{fill:#C7C7C7;}
	.st35{fill:#CCCCCC;}
	.st36{clip-path:url(#SVGID_7_);enable-background:new    ;}
	.st37{fill:#D1D1D1;}
	.st38{fill:#D6D6D6;}
	.st39{fill:#DBDBDB;}
	.st40{fill:#E0E0E0;}
	.st41{fill:#E6E6E6;}
	.st42{fill:#EBEBEB;}
	.st43{fill:#F0F0F0;}
	.st44{fill:#F5F5F5;}
	.st45{fill:#FAFAFA;}
	.st46{fill:#DFDFDF;}
	.st47{fill:#FEFEFE;}
	.st48{fill:#818181;}
	.st49{fill:#B0B0B0;}
	.st50{fill:#C1C1C1;}
	.st51{fill:#F7F7F7;}
</style>
<metadata>
	<sfw  xmlns="&ns_sfw;">
		<slices></slices>
		<sliceSourceBounds  bottomLeftOrigin="true" height="911.7" width="1580.4" x="-457.8" y="-461.2"></sliceSourceBounds>
	</sfw>
</metadata>
<g id="Layer_1">
	
		<linearGradient id="SVGID_1_" gradientUnits="userSpaceOnUse" x1="151.9676" y1="437.6446" x2="190.2029" y2="249.2001" gradientTransform="matrix(1 0 0 -1 0 451)">
		<stop  offset="0" style="stop-color:#0669E9"/>
		<stop  offset="0.1975" style="stop-color:#0E70EA"/>
		<stop  offset="0.5071" style="stop-color:#2484ED"/>
		<stop  offset="0.888" style="stop-color:#49A4F3"/>
		<stop  offset="0.9745" style="stop-color:#52ACF4"/>
	</linearGradient>
	<polygon class="st3" points="7.8,59.8 112.8,7.6 327.2,120.1 220.8,176.2 	"/>
	
		<linearGradient id="SVGID_2_" gradientUnits="userSpaceOnUse" x1="190.6395" y1="176.2357" x2="332.9136" y2="163.853" gradientTransform="matrix(1 0 0 -1 0 451)">
		<stop  offset="0" style="stop-color:#1D5090"/>
		<stop  offset="0.9745" style="stop-color:#387BB6"/>
	</linearGradient>
	<polygon class="st4" points="220.8,176.2 327.2,120.1 322.8,386.1 220.8,444 	"/>
	
		<linearGradient id="SVGID_3_" gradientUnits="userSpaceOnUse" x1="54.3304" y1="302.5349" x2="240.7966" y2="2.5327" gradientTransform="matrix(1 0 0 -1 0 451)">
		<stop  offset="0" style="stop-color:#2E6CAD"/>
		<stop  offset="0.5371" style="stop-color:#3779B7"/>
		<stop  offset="0.9745" style="stop-color:#387AB8"/>
	</linearGradient>
	<polyline class="st5" points="7.8,59.8 11.3,319.4 220.8,444 220.8,176.2 	"/>
</g>
<g id="Layer_2">
	<g>
		<path class="st2" d="M45.6,80.4C56.4,86.1,67.2,91.9,78,97.7l32.3,17.5l32.2,17.7l16,8.9l16,9l-16.2-8.6l-16.2-8.7l-32.3-17.5
			L77.6,98.4C66.9,92.4,56.2,86.5,45.6,80.4z"/>
	</g>
	<g>
		<path class="st2" d="M239.8,166c5.6-3.2,11.3-6.3,16.9-9.4c5.7-3.1,11.4-6.1,17-9.2l17.2-9l8.6-4.4c2.9-1.4,5.8-2.9,8.7-4.3
			c-2.8,1.6-5.6,3.2-8.4,4.8l-8.5,4.7l-17,9.2c-5.7,3-11.4,6-17.2,9C251.3,160.2,245.6,163.2,239.8,166z"/>
	</g>
	<g>
		<polygon class="st2" points="220.8,196.2 221.1,221.3 221.2,246.4 221.3,296.5 221.2,346.7 221.1,371.8 220.8,396.9 220.6,371.8 
			220.4,346.7 220.3,296.5 220.4,246.4 220.6,221.3 		"/>
	</g>
</g>
<g id="Layer_4" class="st7">
</g>
<g id="Layer_3">
</g>
<g id="Layer_5">
	<g>
		<polygon class="st11" points="113.1,336.1 107.6,341.2 102,346.2 105.5,344.2 111.1,339.1 116.7,334.1 		"/>
		<g>
			<g>
				<polygon class="st11" points="91.7,323.2 95.2,321.1 102.1,325.3 98.6,327.3 				"/>
			</g>
			<g>
				<polygon class="st11" points="106.2,331.9 109.7,329.9 116.7,334.1 113.1,336.1 				"/>
			</g>
			<g>
				<polygon class="st2" points="99.3,298.6 106.9,303.3 106.2,331.9 113.1,336.1 107.6,341.2 102,346.2 96.9,334.7 91.7,323.2 
					98.6,327.3 				"/>
			</g>
			<g>
				<polygon class="st11" points="99.3,298.6 102.8,296.6 110.4,301.2 106.9,303.3 				"/>
			</g>
		</g>
		<g>
			<polygon class="st14" points="106.9,303.3 110.4,301.2 109.7,329.9 106.2,331.9 			"/>
		</g>
		<polygon class="st15" points="61.2,283.2 64.8,281.1 69.5,289.6 66,291.7 		"/>
		<polygon class="st11" points="51.2,265.3 54.8,263.2 59.5,271.7 56,273.8 		"/>
		<polygon class="st14" points="38.6,214.2 42.2,212.1 42,220 38.5,222 		"/>
		<polygon class="st15" points="74.3,264.3 77.9,262.3 83.1,271.6 79.6,273.7 		"/>
		<polygon class="st2" points="74.3,264.3 79.6,273.7 61.2,283.2 66,291.7 57,287.8 48,283.9 49.6,274.6 51.2,265.3 56,273.8 		"/>
		<polygon class="st11" points="56,273.8 59.5,271.7 77.9,262.3 74.3,264.3 		"/>
		<polygon class="st11" points="35.1,197.3 27.7,199 24.2,201 31.6,199.3 39,197.7 42.6,195.6 		"/>
		<polygon class="st14" points="39,197.7 42.6,195.6 42.4,203.5 38.9,205.5 		"/>
		<polygon class="st2" points="39,197.7 38.9,205.5 64.1,220.8 63.9,229.5 38.6,214.2 38.5,222 31.3,211.5 24.2,201 31.6,199.3 		
			"/>
		<polygon class="st14" points="64.1,220.8 67.7,218.8 67.4,227.4 63.9,229.5 		"/>
		<polygon class="st11" points="38.9,205.5 42.4,203.5 67.7,218.8 64.1,220.8 		"/>
		<polygon class="st11" points="136.9,307 140.4,304.9 146,302.2 142.5,304.2 		"/>
		<polygon class="st15" points="142.5,304.2 146,302.2 163.2,333.4 159.6,335.4 		"/>
		<polygon class="st15" points="63.8,166 67.3,163.9 84.7,195 81.2,197.1 		"/>
		<polygon class="st20" points="51,149.4 54.5,147.4 63.4,154.3 59.9,156.4 		"/>
		<g>
			<polygon class="st11" points="149,340.7 154,338.2 157.6,336.1 152.5,338.6 			"/>
			<polygon class="st11" points="163.2,333.4 159.6,335.4 164.7,332.9 168.2,330.9 			"/>
		</g>
		<polygon class="st2" points="142.5,304.2 159.6,335.4 164.7,332.9 165.7,343.9 166.8,354.8 157.9,347.7 149,340.7 154,338.2 
			136.9,307 		"/>
		<polygon class="st19" points="169.3,341.8 168.2,330.9 164.7,332.9 165.7,343.9 166.8,354.8 170.3,352.8 		"/>
		<polygon class="st20" points="59.9,156.4 63.4,154.3 72.3,161.3 68.8,163.4 		"/>
		<polygon class="st2" points="51,149.4 59.9,156.4 68.8,163.4 63.8,166 81.2,197.1 75.6,199.9 58.3,168.8 53.2,171.4 52.1,160.4 		
			"/>
		<g>
			<path class="st19" d="M153.2,273.5C153.2,273.5,153.2,273.4,153.2,273.5c0-0.7,0-1.4,0-2c0,0,0-0.1,0-0.1c0-0.2,0-0.3,0-0.5
				c0-0.5,0-0.9-0.1-1.4c0-0.1,0-0.2,0-0.3c0-0.3,0-0.5-0.1-0.8c0-0.3,0-0.6-0.1-1c0-0.2,0-0.3-0.1-0.5c0-0.3-0.1-0.6-0.1-0.9
				c0-0.2,0-0.5-0.1-0.7c0-0.2-0.1-0.5-0.1-0.7c0-0.3-0.1-0.6-0.1-0.9c0-0.2,0-0.3-0.1-0.5c-0.1-0.3-0.1-0.6-0.2-1
				c0-0.3-0.1-0.6-0.1-0.8c0-0.1,0-0.2-0.1-0.3c-0.1-0.5-0.2-0.9-0.3-1.4c0-0.2-0.1-0.4-0.1-0.6c0,0,0-0.1,0-0.1
				c-0.2-0.7-0.3-1.4-0.5-2.2c0,0,0,0,0-0.1c0-0.2-0.1-0.3-0.1-0.5c-0.1-0.5-0.3-1.1-0.4-1.6c0-0.1,0-0.2-0.1-0.2
				c-0.1-0.3-0.2-0.5-0.2-0.8c-0.1-0.4-0.2-0.7-0.3-1.1c0-0.2-0.1-0.3-0.2-0.5c-0.1-0.3-0.2-0.6-0.3-0.9c-0.1-0.3-0.2-0.5-0.3-0.8
				c-0.1-0.3-0.2-0.5-0.3-0.8c-0.1-0.3-0.2-0.5-0.3-0.8c-0.1-0.2-0.1-0.3-0.2-0.5c-0.2-0.4-0.3-0.9-0.5-1.3
				c-0.1-0.2-0.1-0.4-0.2-0.6c0-0.1,0-0.1-0.1-0.2c-0.3-0.6-0.5-1.3-0.8-1.9c0-0.1-0.1-0.1-0.1-0.2c-0.1-0.2-0.2-0.4-0.2-0.6
				c-0.2-0.4-0.3-0.8-0.5-1.2c-0.1-0.2-0.2-0.4-0.3-0.6c-0.1-0.3-0.2-0.5-0.4-0.8c-0.1-0.2-0.2-0.4-0.3-0.6
				c-0.2-0.4-0.3-0.7-0.5-1.1c-0.1-0.2-0.2-0.5-0.3-0.7c0-0.1-0.1-0.2-0.1-0.3c-0.2-0.3-0.4-0.7-0.5-1c-0.2-0.4-0.4-0.9-0.7-1.3
				c0-0.1-0.1-0.2-0.1-0.3c-0.4-0.7-0.8-1.4-1.1-2.1c-0.2-0.4-0.5-0.8-0.7-1.2c-0.1-0.2-0.3-0.4-0.4-0.6c-0.3-0.5-0.6-1.1-1-1.6
				c-0.2-0.4-0.5-0.8-0.7-1.1c-0.3-0.5-0.7-1-1-1.6c-0.2-0.2-0.3-0.5-0.5-0.7c-0.1-0.1-0.1-0.2-0.2-0.3c-0.7-1-1.4-2-2.1-3
				c0,0,0-0.1-0.1-0.1c-0.3-0.4-0.6-0.8-0.9-1.2c-0.2-0.3-0.5-0.6-0.7-0.9c0,0,0,0-0.1-0.1c-0.5-0.7-1-1.3-1.6-1.9c0,0,0,0-0.1-0.1
				c-0.1-0.1-0.2-0.3-0.4-0.4c-0.4-0.4-0.7-0.9-1.1-1.3c-0.1-0.1-0.1-0.2-0.2-0.2c-0.2-0.2-0.4-0.5-0.6-0.7
				c-0.3-0.3-0.5-0.6-0.8-0.8c-0.1-0.1-0.2-0.2-0.4-0.4c-0.2-0.3-0.5-0.5-0.7-0.8c-0.2-0.2-0.4-0.4-0.6-0.6
				c-0.2-0.2-0.3-0.3-0.5-0.5c-0.3-0.3-0.5-0.5-0.8-0.8c-0.2-0.2-0.3-0.3-0.5-0.5c-0.2-0.2-0.4-0.3-0.6-0.5
				c-0.3-0.3-0.6-0.5-0.8-0.8c-0.1-0.1-0.3-0.3-0.4-0.4c-0.2-0.2-0.4-0.4-0.6-0.6c-0.3-0.3-0.6-0.5-0.9-0.8
				c-0.1-0.1-0.2-0.2-0.3-0.3c-0.2-0.2-0.5-0.4-0.7-0.6c-0.3-0.2-0.6-0.5-0.8-0.7c-0.1-0.1-0.2-0.2-0.3-0.2
				c-0.3-0.2-0.6-0.4-0.9-0.7c-0.3-0.2-0.5-0.4-0.8-0.6c-0.1,0-0.1-0.1-0.2-0.1c-0.4-0.3-0.8-0.5-1.1-0.8c-0.2-0.1-0.4-0.3-0.6-0.4
				c0,0-0.1,0-0.1-0.1c-0.6-0.4-1.2-0.8-1.7-1.1c0,0,0,0-0.1,0c-0.1-0.1-0.3-0.2-0.4-0.2c-0.4-0.3-0.9-0.5-1.3-0.8
				c-0.1-0.1-0.3-0.2-0.4-0.2c-0.4-0.2-0.9-0.5-1.3-0.7c-0.1-0.1-0.2-0.1-0.4-0.2c-0.2-0.1-0.5-0.2-0.7-0.4
				c-0.2-0.1-0.4-0.2-0.6-0.3c-0.2-0.1-0.3-0.2-0.5-0.2c-0.2-0.1-0.5-0.2-0.7-0.3c-0.1-0.1-0.3-0.1-0.4-0.2
				c-0.2-0.1-0.5-0.2-0.7-0.3c-0.2-0.1-0.5-0.2-0.7-0.3c-0.1,0-0.2-0.1-0.3-0.1c-0.3-0.1-0.6-0.2-1-0.4c-0.2-0.1-0.4-0.1-0.6-0.2
				c0,0-0.1,0-0.1,0c-0.6-0.2-1.1-0.4-1.7-0.5c0,0,0,0,0,0c-0.6-0.2-1.1-0.3-1.7-0.5c0,0-0.1,0-0.1,0c-0.2-0.1-0.4-0.1-0.7-0.1
				c-0.3-0.1-0.6-0.2-1-0.2c-0.1,0-0.1,0-0.2,0c-0.3-0.1-0.5-0.1-0.8-0.1c-0.3,0-0.5-0.1-0.8-0.1c-0.1,0-0.1,0-0.2,0
				c-0.3,0-0.6-0.1-0.9-0.1c-0.2,0-0.5-0.1-0.7-0.1c-0.1,0-0.1,0-0.2,0c-0.4,0-0.8,0-1.2,0c-0.2,0-0.4,0-0.6,0c0,0-0.1,0-0.1,0
				c-0.6,0-1.3,0-1.9,0.1c0,0,0,0,0,0c-0.5,0-1,0.1-1.5,0.2c-0.1,0-0.3,0-0.4,0.1c-0.2,0-0.3,0.1-0.5,0.1c-0.2,0-0.4,0.1-0.5,0.1
				c-0.2,0-0.4,0.1-0.6,0.1c-0.3,0.1-0.7,0.2-1,0.3c-0.2,0.1-0.4,0.1-0.5,0.2c0,0-0.1,0-0.2,0c-0.3,0.1-0.6,0.2-0.9,0.3
				c-0.2,0.1-0.3,0.1-0.5,0.2c-0.5,0.2-1,0.4-1.5,0.7c-0.2,0.1-0.4,0.2-0.6,0.3l-3.5,2c0.2-0.1,0.4-0.2,0.6-0.3
				c0.5-0.3,1-0.5,1.5-0.7c0.2-0.1,0.3-0.1,0.5-0.2c0.3-0.1,0.7-0.3,1-0.4c0.2-0.1,0.4-0.1,0.5-0.2c0.3-0.1,0.7-0.2,1-0.3
				c0.2-0.1,0.4-0.1,0.6-0.1c0.3-0.1,0.7-0.2,1.1-0.2c0.1,0,0.3,0,0.4-0.1c0.5-0.1,1-0.1,1.5-0.2c0.6-0.1,1.3-0.1,1.9-0.1
				c0.2,0,0.5,0,0.7,0c0.4,0,0.8,0,1.2,0c0.3,0,0.6,0.1,0.9,0.1c0.3,0,0.6,0.1,0.9,0.1c0.3,0,0.7,0.1,1,0.2c0.3,0,0.5,0.1,0.8,0.1
				c0.4,0.1,0.8,0.2,1.1,0.2c0.2,0,0.4,0.1,0.7,0.1c0.6,0.1,1.2,0.3,1.8,0.5c0,0,0,0,0,0c0,0,0,0,0,0c0.6,0.2,1.2,0.4,1.8,0.6
				c0.2,0.1,0.4,0.1,0.6,0.2c0.4,0.2,0.8,0.3,1.2,0.5c0.2,0.1,0.5,0.2,0.7,0.3c0.4,0.2,0.8,0.3,1.1,0.5c0.2,0.1,0.5,0.2,0.7,0.3
				c0.4,0.2,0.7,0.4,1.1,0.6c0.2,0.1,0.5,0.2,0.7,0.4c0.5,0.3,1.1,0.6,1.6,0.9c0.6,0.3,1.1,0.7,1.7,1c0.1,0.1,0.3,0.2,0.4,0.2
				c0.6,0.4,1.3,0.8,1.9,1.2c0.2,0.1,0.4,0.3,0.6,0.4c0.4,0.3,0.9,0.6,1.3,1c0.3,0.2,0.5,0.4,0.8,0.6c0.4,0.3,0.8,0.6,1.1,0.9
				c0.3,0.2,0.6,0.5,0.8,0.7c0.4,0.3,0.7,0.6,1.1,0.9c0.3,0.2,0.6,0.5,0.9,0.8c0.3,0.3,0.7,0.6,1,0.9c0.3,0.3,0.6,0.5,0.8,0.8
				c0.3,0.3,0.7,0.7,1,1c0.3,0.3,0.5,0.5,0.8,0.8c0.4,0.4,0.7,0.7,1.1,1.1c0.2,0.3,0.5,0.5,0.7,0.8c0.4,0.4,0.7,0.8,1.1,1.2
				c0.2,0.2,0.4,0.5,0.6,0.7c0.4,0.5,0.9,1,1.3,1.5c0.1,0.1,0.2,0.3,0.4,0.4c0.6,0.7,1.1,1.4,1.7,2.1c0.2,0.3,0.5,0.6,0.7,1
				c0.3,0.4,0.7,0.9,1,1.3c0.7,1,1.4,2,2.1,3c0.2,0.3,0.5,0.7,0.7,1c0.3,0.5,0.7,1,1,1.6c0.2,0.4,0.5,0.8,0.7,1.1
				c0.3,0.5,0.6,1.1,1,1.6c0.4,0.6,0.7,1.2,1.1,1.8c0.4,0.8,0.9,1.6,1.3,2.3c0.2,0.4,0.5,0.9,0.7,1.3c0.2,0.4,0.5,0.9,0.7,1.3
				c0.1,0.2,0.2,0.5,0.3,0.7c0.3,0.6,0.5,1.1,0.8,1.7c0.1,0.3,0.2,0.5,0.4,0.8c0.3,0.6,0.5,1.2,0.8,1.8c0.1,0.2,0.2,0.4,0.2,0.6
				c0.3,0.8,0.6,1.5,0.9,2.3c0.1,0.2,0.1,0.4,0.2,0.6c0.2,0.6,0.4,1.2,0.7,1.8c0.1,0.3,0.2,0.5,0.3,0.8c0.2,0.5,0.4,1,0.5,1.6
				c0.1,0.3,0.2,0.6,0.3,0.9c0.2,0.5,0.3,1.1,0.5,1.6c0.1,0.3,0.2,0.5,0.2,0.8c0.2,0.6,0.3,1.3,0.5,1.9c0,0.2,0.1,0.3,0.1,0.5
				c0.2,0.8,0.4,1.6,0.5,2.3c0,0.2,0.1,0.4,0.1,0.6c0.1,0.6,0.2,1.1,0.3,1.7c0.1,0.3,0.1,0.6,0.1,0.8c0.1,0.5,0.2,1,0.2,1.5
				c0,0.3,0.1,0.6,0.1,0.9c0.1,0.5,0.1,0.9,0.2,1.4c0,0.3,0.1,0.6,0.1,0.9c0,0.5,0.1,1,0.1,1.4c0,0.3,0,0.5,0.1,0.8
				c0,0.6,0.1,1.1,0.1,1.6c0,0.2,0,0.3,0,0.5c0,0.7,0,1.4,0,2.1c0,0.2,0,0.4,0,0.6c0,0.5,0,1,0,1.5c0,0.3,0,0.5,0,0.8
				c0,0.4-0.1,0.8-0.1,1.2c0,0.3-0.1,0.6-0.1,0.9c0,0.4-0.1,0.7-0.1,1.1c0,0.3-0.1,0.6-0.1,0.9c-0.1,0.3-0.1,0.7-0.2,1
				c-0.1,0.4-0.1,0.7-0.2,1.1c-0.1,0.3-0.1,0.6-0.2,0.9c-0.1,0.4-0.2,0.8-0.3,1.2c-0.1,0.3-0.1,0.5-0.2,0.8
				c-0.2,0.6-0.4,1.2-0.6,1.7c0,0.1-0.1,0.2-0.1,0.3c-0.3,0.7-0.6,1.4-0.9,2.1c-0.1,0.3-0.3,0.6-0.4,0.8c-0.1,0.2-0.2,0.4-0.3,0.6
				c-0.2,0.3-0.4,0.6-0.5,0.9c-0.1,0.2-0.2,0.3-0.3,0.5c-0.3,0.4-0.6,0.9-0.9,1.3c-0.1,0.1-0.1,0.2-0.2,0.3c-0.2,0.3-0.5,0.6-0.8,1
				c-0.1,0.1-0.2,0.2-0.3,0.3c-0.3,0.3-0.6,0.6-0.9,1c-0.1,0.1-0.1,0.1-0.2,0.2c-0.4,0.4-0.7,0.7-1.1,1c-0.1,0.1-0.2,0.2-0.3,0.3
				c-0.3,0.2-0.6,0.5-0.9,0.7c-0.1,0.1-0.2,0.2-0.4,0.3c-0.4,0.3-0.8,0.6-1.3,0.8l3.5-2c0.4-0.3,0.9-0.5,1.3-0.8
				c0.1-0.1,0.2-0.2,0.4-0.3c0.3-0.2,0.6-0.5,0.9-0.7c0.1-0.1,0.2-0.2,0.3-0.3c0.4-0.3,0.8-0.7,1.1-1c0.1-0.1,0.1-0.1,0.2-0.2
				c0.3-0.3,0.6-0.6,0.9-1c0.1-0.1,0.2-0.2,0.3-0.3c0.3-0.3,0.5-0.6,0.8-1c0.1-0.1,0.1-0.2,0.2-0.3c0.3-0.4,0.5-0.8,0.8-1.2
				c0,0,0-0.1,0.1-0.1c0.1-0.2,0.2-0.3,0.3-0.5c0.2-0.3,0.4-0.6,0.5-0.9c0.1-0.2,0.2-0.4,0.3-0.6c0.1-0.2,0.2-0.4,0.3-0.6
				c0-0.1,0.1-0.2,0.1-0.2c0.3-0.7,0.6-1.4,0.9-2.1c0,0,0,0,0,0c0-0.1,0.1-0.2,0.1-0.2c0.2-0.6,0.4-1.2,0.6-1.7c0-0.1,0-0.1,0.1-0.2
				c0.1-0.2,0.1-0.4,0.2-0.6c0.1-0.4,0.2-0.8,0.3-1.2c0-0.1,0.1-0.2,0.1-0.3c0-0.2,0.1-0.4,0.1-0.6c0.1-0.3,0.1-0.7,0.2-1.1
				c0-0.1,0.1-0.2,0.1-0.4c0-0.2,0.1-0.4,0.1-0.7c0-0.3,0.1-0.6,0.1-0.9c0-0.1,0-0.2,0.1-0.4c0-0.2,0.1-0.5,0.1-0.7
				c0-0.3,0.1-0.6,0.1-0.9c0-0.1,0-0.2,0-0.3c0-0.3,0-0.6,0.1-0.9c0-0.3,0-0.5,0-0.8c0-0.1,0-0.1,0-0.2c0-0.4,0-0.9,0-1.3
				C153.2,273.9,153.2,273.7,153.2,273.5z"/>
			<path class="st2" d="M108.8,204.5c10.7,6.2,21.4,17.1,29.4,31.3c15.7,27.8,15.2,57.4-1.1,66.1c-8,4.3-18.3,2.8-28.6-3.2
				c-10.7-6.2-21.4-17.1-29.4-31.3c-15.7-27.8-15.2-57.4,1.1-66.1C88.2,197.1,98.5,198.6,108.8,204.5z"/>
		</g>
		<g>
			<polygon class="st46" points="158.3,271 161.7,268.8 187.6,283.3 184.2,285.5 			"/>
			<polygon class="st19" points="195.1,285.7 187.6,275.5 184.1,277.7 191.7,287.9 199.3,298.1 202.7,295.9 			"/>
			<polygon class="st2" points="184.1,277.7 191.7,287.9 199.3,298.1 191.8,300 184.4,301.9 184.3,294.1 158.4,279.7 158.3,271 
				184.2,285.5 			"/>
		</g>
		<g>
			<polygon class="st48" points="142.2,227.9 145.7,225.9 163.9,216.1 160.4,218.2 			"/>
			<polygon class="st35" points="155.6,209.7 159.1,207.6 168.1,211.4 164.6,213.4 			"/>
			<g>
				<polygon class="st49" points="172,226.6 175.5,224.6 174,234 170.5,236 				"/>
				<polygon class="st35" points="164.6,213.4 168.1,211.4 177.1,215.2 173.6,217.2 				"/>
				<polygon class="st2" points="173.6,217.2 172,226.6 170.5,236 165.7,227.5 147.5,237.3 142.2,227.9 160.4,218.2 155.6,209.7 
					164.6,213.4 				"/>
				<polygon class="st49" points="173.6,217.2 177.1,215.2 175.5,224.6 172,226.6 				"/>
			</g>
		</g>
		<g>
			<g>
				<polygon class="st11" points="115.4,171.1 118.9,169 118.1,197.6 114.6,199.7 				"/>
			</g>
			<g>
				<polygon class="st2" points="112.1,152.2 117.2,163.7 122.3,175.3 115.4,171.1 114.6,199.7 106.9,195 107.8,166.4 100.8,162.2 
					106.4,157.2 				"/>
			</g>
			<polygon class="st11" points="120.7,161.7 115.6,150.2 112.1,152.2 117.2,163.7 122.3,175.3 125.8,173.2 			"/>
		</g>
		<path class="st19" d="M81.2,200.8c0,0,14.9-7.8,34.2,8.2s26.2,33,30.8,45.3c4.7,12.3,4.4,28.2,1.4,34.5c-3,6.3-4.5,9.1-8.1,11.8
			c0,0,7.1-4,9.3-8.8c2.2-4.8,3.2-4.7,4.4-18.6c0,0-1-16.2-4.3-23.4c0,0-5.1-14.1-11-22.1c0,0-14.4-19.5-23.9-24.2
			s-11.7-6.6-22.3-6.5C91.8,197,88.9,196.8,81.2,200.8z"/>
	</g>
</g>
</svg>
