<?xml version="1.0" encoding="utf-8"?>
<!-- Generator: Adobe Illustrator 23.0.2, SVG Export Plug-In . SVG Version: 6.00 Build 0)  -->
<!DOCTYPE svg PUBLIC "-//W3C//DTD SVG 1.1//EN" "http://www.w3.org/Graphics/SVG/1.1/DTD/svg11.dtd" [
	<!ENTITY ns_extend "http://ns.adobe.com/Extensibility/1.0/">
	<!ENTITY ns_ai "http://ns.adobe.com/AdobeIllustrator/10.0/">
	<!ENTITY ns_graphs "http://ns.adobe.com/Graphs/1.0/">
	<!ENTITY ns_vars "http://ns.adobe.com/Variables/1.0/">
	<!ENTITY ns_imrep "http://ns.adobe.com/ImageReplacement/1.0/">
	<!ENTITY ns_sfw "http://ns.adobe.com/SaveForWeb/1.0/">
	<!ENTITY ns_custom "http://ns.adobe.com/GenericCustomNamespace/1.0/">
	<!ENTITY ns_adobe_xpath "http://ns.adobe.com/XPath/1.0/">
]>
<svg version="1.1" xmlns:x="&ns_extend;" xmlns:i="&ns_ai;" xmlns:graph="&ns_graphs;"
	 xmlns="http://www.w3.org/2000/svg" xmlns:xlink="http://www.w3.org/1999/xlink" x="0px" y="0px" viewBox="0 0 441.3 431.5"
	 style="enable-background:new 0 0 441.3 431.5;" xml:space="preserve">
<style type="text/css">
	.st0{display:none;}
	.st1{fill:url(#SVGID_1_);}
	.st2{fill:url(#SVGID_2_);}
	.st3{fill:url(#SVGID_3_);}
	.st4{fill:none;}
	.st5{fill:#B4C6E6;}
	.st6{fill:#F0F0F7;}
	.st7{opacity:0.25;enable-background:new    ;}
	.st8{fill:#FFFFFF;}
	.st9{fill:#00001A;}
	.st10{fill:url(#SVGID_4_);}
	.st11{fill:url(#SVGID_5_);}
	.st12{fill:url(#SVGID_6_);}
	.st13{fill:url(#SVGID_7_);}
	.st14{fill:url(#SVGID_8_);}
	.st15{fill:url(#SVGID_9_);}
	.st16{fill:url(#SVGID_10_);}
	.st17{fill:url(#SVGID_11_);}
	.st18{fill:url(#SVGID_12_);}
	.st19{fill:url(#SVGID_13_);}
	.st20{fill:#949494;}
	.st21{fill:#AFAFAF;}
	.st22{fill:#EEEEEE;}
	.st23{fill:#000011;}
	.st24{fill:#000017;}
	.st25{fill:#000010;}
	.st26{fill:url(#SVGID_14_);}
	.st27{fill:url(#SVGID_15_);}
	.st28{fill:url(#SVGID_16_);}
	.st29{fill:url(#SVGID_17_);}
	.st30{fill:url(#SVGID_18_);}
	.st31{fill:none;stroke:#FFFFFF;stroke-width:3;stroke-miterlimit:10;}
	.st32{fill:none;stroke:#FFFFFF;stroke-width:2;stroke-miterlimit:10;}
	.st33{fill:none;stroke:#FFFFFF;stroke-width:5;stroke-linecap:round;stroke-linejoin:round;stroke-miterlimit:10;}
	.st34{fill:url(#SVGID_19_);}
	.st35{fill:url(#SVGID_20_);}
	.st36{fill:url(#SVGID_21_);}
	.st37{fill:none;stroke:#FFFFFF;stroke-width:4;stroke-linecap:round;stroke-linejoin:round;stroke-miterlimit:10;}
	.st38{display:none;fill:url(#SVGID_22_);}
	.st39{display:none;fill:url(#SVGID_23_);}
	.st40{fill:url(#SVGID_24_);}
	.st41{fill:url(#SVGID_25_);}
	.st42{fill:url(#SVGID_26_);}
	.st43{fill:url(#SVGID_27_);}
	.st44{fill:url(#SVGID_28_);}
	.st45{fill:url(#SVGID_29_);}
	.st46{fill:url(#SVGID_30_);}
</style>
<metadata>
	<sfw  xmlns="&ns_sfw;">
		<slices></slices>
		<sliceSourceBounds  bottomLeftOrigin="true" height="3003.6" width="4596" x="-1901.6" y="-1256.3"></sliceSourceBounds>
	</sfw>
</metadata>
<g id="Layer_1">
	
		<linearGradient id="SVGID_1_" gradientUnits="userSpaceOnUse" x1="207.5646" y1="1402.5082" x2="216.6194" y2="1558.5234" gradientTransform="matrix(1 0 0 1 0 -1278.3699)">
		<stop  offset="0" style="stop-color:#0669EA"/>
		<stop  offset="2.208945e-02" style="stop-color:#086BEA"/>
		<stop  offset="0.4403" style="stop-color:#308EF0"/>
		<stop  offset="0.7722" style="stop-color:#49A4F3"/>
		<stop  offset="0.9745" style="stop-color:#52ACF4"/>
	</linearGradient>
	<polygon style="display:none;fill:url(#SVGID_1_);" points="57.5,198 213.3,117.9 366.7,206 211.5,290.4 	"/>
	
		<linearGradient id="SVGID_2_" gradientUnits="userSpaceOnUse" x1="281.2513" y1="1537.9634" x2="300.8839" y2="1573.5737" gradientTransform="matrix(1 0 0 1 0 -1278.3699)">
		<stop  offset="0" style="stop-color:#1E569A"/>
		<stop  offset="0.9745" style="stop-color:#52ACF4"/>
	</linearGradient>
	<polygon style="display:none;fill:url(#SVGID_2_);" points="211.5,341.6 366.7,256.2 366.7,206 211.5,290.4 	"/>
</g>
<g id="Layer_2">
	<g>
		<g>
			<polygon class="st20" points="353,157.4 358.3,156.3 361.2,156.9 355.8,157.9 			"/>
		</g>
		<g>
			<polygon class="st21" points="355.8,157.9 361.2,156.9 361,163.1 355.7,164.1 			"/>
		</g>
		<g>
			<polygon class="st20" points="355.7,164.1 361,163.1 372.9,165 367.6,166.2 			"/>
		</g>
		<g>
			<polygon class="st21" points="367.6,160 373.1,158.9 372.9,165 367.6,166.2 			"/>
		</g>
		<g>
			<polygon class="st20" points="355.8,157.9 361.2,156.9 373.1,158.9 367.6,160 			"/>
		</g>
		<g>
			<polygon class="st20" points="367.6,160 373.1,158.9 375.7,159.4 370.4,160.4 			"/>
		</g>
		<g>
			<polygon class="st22" points="370.4,160.4 375.7,159.4 374.8,211.1 369.5,212.3 			"/>
		</g>
		<g>
			<polygon class="st23" points="356.9,94.9 362.2,93.9 374.1,95.8 368.7,97 			"/>
		</g>
		<g>
			<polygon class="st24" points="368.7,97 374.1,95.8 373.1,158.9 367.6,160 			"/>
		</g>
		<g>
			<polygon class="st25" points="368.7,97 367.6,160 355.8,157.9 356.9,94.9 			"/>
		</g>
		
			<linearGradient id="SVGID_3_" gradientUnits="userSpaceOnUse" x1="351.875" y1="-1705.3732" x2="370.6979" y2="-1705.3732" gradientTransform="matrix(1 0 0 -1 0 -1521.5625)">
			<stop  offset="0" style="stop-color:#1E569A"/>
			<stop  offset="0.1968" style="stop-color:#205A9E"/>
			<stop  offset="0.4065" style="stop-color:#2866AB"/>
			<stop  offset="0.6222" style="stop-color:#347BC0"/>
			<stop  offset="0.8407" style="stop-color:#4597DE"/>
			<stop  offset="0.9745" style="stop-color:#52ACF4"/>
		</linearGradient>
		<polygon class="st3" points="353,157.4 370.7,160.6 369.5,210.2 351.8,208.1 		"/>
		<g>
			<polygon class="st20" points="233,87.6 238.4,86.6 241.2,87.1 235.8,88.2 			"/>
		</g>
		<g>
			<polygon class="st21" points="235.8,88.2 241.2,87.1 241,93.3 235.7,94.5 			"/>
		</g>
		<g>
			<polygon class="st20" points="235.7,94.5 241,93.3 252.9,95.4 247.6,96.4 			"/>
		</g>
		<g>
			<polygon class="st21" points="247.7,90.2 253.1,89.1 252.9,95.4 247.6,96.4 			"/>
		</g>
		<g>
			<polygon class="st20" points="235.8,88.2 241.2,87.1 253.1,89.1 247.7,90.2 			"/>
		</g>
		<g>
			<polygon class="st20" points="247.7,90.2 253.1,89.1 255.7,89.6 250.4,90.8 			"/>
		</g>
		<g>
			<polygon class="st22" points="250.4,90.8 255.7,89.6 254.8,141.3 249.5,142.4 			"/>
		</g>
		<g>
			<polygon class="st23" points="236.9,25.3 242.2,24.1 254.1,26.2 248.7,27.2 			"/>
		</g>
		<g>
			<polygon class="st24" points="248.7,27.2 254.1,26.2 253.1,89.1 247.7,90.2 			"/>
		</g>
		<g>
			<polygon class="st25" points="248.7,27.2 247.7,90.2 235.8,88.2 236.9,25.3 			"/>
		</g>
		
			<linearGradient id="SVGID_4_" gradientUnits="userSpaceOnUse" x1="231.8981" y1="-1635.5724" x2="250.721" y2="-1635.5724" gradientTransform="matrix(1 0 0 -1 0 -1521.5625)">
			<stop  offset="0" style="stop-color:#1E569A"/>
			<stop  offset="0.1968" style="stop-color:#205A9E"/>
			<stop  offset="0.4065" style="stop-color:#2866AB"/>
			<stop  offset="0.6222" style="stop-color:#347BC0"/>
			<stop  offset="0.8407" style="stop-color:#4597DE"/>
			<stop  offset="0.9745" style="stop-color:#52ACF4"/>
		</linearGradient>
		<polygon class="st10" points="233.2,87.6 250.7,90.8 249.5,140.4 232,138.3 		"/>
		
			<linearGradient id="SVGID_5_" gradientUnits="userSpaceOnUse" x1="145.742" y1="1553.1714" x2="96.9239" y2="1643.5289" gradientTransform="matrix(1 0 0 1 0 -1278.3699)">
			<stop  offset="0" style="stop-color:#164484"/>
			<stop  offset="8.705189e-02" style="stop-color:#1C4E8F"/>
			<stop  offset="0.2397" style="stop-color:#2B69AC"/>
			<stop  offset="0.4387" style="stop-color:#4595DB"/>
			<stop  offset="0.5335" style="stop-color:#52ACF4"/>
		</linearGradient>
		<polyline class="st11" points="21.8,261.8 250.5,399.1 250.5,323.1 21.8,185.9 		"/>
		<g>
			<path class="st8" d="M85.1,223.9c10.2,5.8,20.3,11.7,30.4,17.7l30.3,18l30.1,18.3l15,9.2l14.9,9.4l-15.3-8.8l-15.1-8.9l-30.3-18
				l-30.1-18.3C105,236.4,95,230.3,85.1,223.9z"/>
		</g>
		<g>
			<path class="st8" d="M427.7,226.6c-10.1,5.8-20.3,11.6-30.7,17.2l-30.9,16.9l-31,16.6l-15.6,8.2l-15.6,8l15.3-8.8l15.4-8.6
				l30.9-16.9l31-16.6C406.8,237.4,417.2,231.9,427.7,226.6z"/>
		</g>
		<g>
			<path class="st8" d="M250.5,328c0.3,5.3,0.4,10.7,0.6,16c0.1,5.3,0.1,10.7,0.1,16c0,5.3,0,10.7-0.1,16l-0.1,8
				c-0.1,2.7-0.1,5.3-0.3,8c-0.1-2.7-0.3-5.3-0.3-8l-0.1-8c-0.1-5.3-0.1-10.7-0.1-16c0-5.3,0-10.7,0.1-16
				C250.1,338.5,250.2,333.3,250.5,328z"/>
		</g>
		
			<ellipse transform="matrix(0.5141 -0.8577 0.8577 0.5141 -182.5368 165.6025)" class="st31" cx="54.9" cy="243.9" rx="12.5" ry="17.8"/>
		
			<ellipse transform="matrix(0.5141 -0.8577 0.8577 0.5141 -183.198 202.6617)" class="st31" cx="87.3" cy="263" rx="12.5" ry="17.8"/>
		
			<ellipse transform="matrix(0.5141 -0.8577 0.8577 0.5141 -183.8326 237.7953)" class="st31" cx="118" cy="281.2" rx="12.5" ry="17.8"/>
		
			<ellipse transform="matrix(0.5141 -0.8577 0.8577 0.5141 -184.6399 274.8509)" class="st32" cx="150.3" cy="300.4" rx="12.5" ry="17.8"/>
		
			<ellipse transform="matrix(0.5141 -0.8577 0.8577 0.5141 -185.2746 309.9849)" class="st31" cx="181" cy="318.5" rx="12.5" ry="17.8"/>
		
			<ellipse transform="matrix(0.5141 -0.8577 0.8577 0.5141 -187.1385 347.099)" class="st31" cx="212.8" cy="338.7" rx="12.5" ry="17.8"/>
		<linearGradient id="SVGID_6_" gradientUnits="userSpaceOnUse" x1="322.1416" y1="294.9834" x2="351.2724" y2="347.8218">
			<stop  offset="0" style="stop-color:#1E569A"/>
			<stop  offset="0.9745" style="stop-color:#52ACF4"/>
		</linearGradient>
		<polygon class="st12" points="250.5,323.1 416.9,232.7 416.9,307.6 250.5,399.1 		"/>
		<linearGradient id="SVGID_7_" gradientUnits="userSpaceOnUse" x1="180.075" y1="138.0863" x2="281.235" y2="321.5736">
			<stop  offset="0" style="stop-color:#0669EA"/>
			<stop  offset="2.208945e-02" style="stop-color:#086BEA"/>
			<stop  offset="0.4403" style="stop-color:#308EF0"/>
			<stop  offset="0.7722" style="stop-color:#49A4F3"/>
			<stop  offset="0.9745" style="stop-color:#52ACF4"/>
		</linearGradient>
		<polygon class="st13" points="21.8,185.9 250.5,323.1 416.9,232.7 187,101 		"/>
	</g>
</g>
</svg>
